<svg xmlns="http://www.w3.org/2000/svg" width="2182" height="1952" viewBox="0 0 2182 1952" version="1.1"><path d="M 986 106.888 C 976.950 109.817, 970.824 113.510, 964.753 119.696 C 955.683 128.938, 952.525 140.560, 954.969 155.706 C 957.551 171.712, 968.990 182.938, 990.250 190.329 C 993.492 191.456, 992.034 192.738, 986.750 193.407 C 975.880 194.785, 930.159 209, 912.486 216.497 C 881.893 229.475, 865.595 238.275, 836.500 257.528 C 790.356 288.062, 749.688 331.647, 721.289 381 C 702.578 413.518, 687.705 450.131, 679.651 483.500 C 673.898 507.337, 669.517 534.301, 668.170 554.170 C 667.700 561.101, 666.856 566.469, 666.091 567.390 C 665.383 568.244, 650.110 578.687, 632.152 590.599 C 571.467 630.849, 523.463 663.152, 515 669.431 C 504.710 677.066, 501.290 688.742, 506.401 698.783 C 510.700 707.229, 516.536 710.697, 531.098 713.459 C 550.716 717.181, 592.195 713.876, 637.365 704.993 C 645.620 703.369, 652.601 702.267, 652.877 702.543 C 653.153 702.820, 652.637 706.973, 651.731 711.773 C 646.043 741.889, 643.180 787.428, 644.957 819.500 C 647.036 857.014, 650.745 884.374, 657.446 911.614 C 664.914 941.974, 683.088 993.346, 701.891 1037.250 C 712.153 1061.208, 722.101 1093.488, 725.391 1113.500 C 731.273 1149.272, 729.796 1200.098, 721.412 1250.500 C 718.659 1267.044, 711.554 1299.234, 708.167 1310.503 C 700.624 1335.599, 688.145 1367.550, 682.567 1376.050 C 678.273 1382.592, 674.965 1389.975, 674.364 1394.361 C 673.366 1401.639, 676.174 1403.647, 697 1410.548 C 731.957 1422.131, 759.841 1435.169, 797 1457.305 C 823.869 1473.311, 870.733 1508.501, 899.138 1534 C 919.159 1551.973, 942.836 1572.926, 954.508 1583 C 961.200 1588.775, 970.460 1596.917, 975.087 1601.093 C 1010.099 1632.695, 1051.213 1661.610, 1084.500 1678.043 C 1132.076 1701.531, 1169.834 1712.285, 1218.005 1716.070 C 1238.098 1717.649, 1244.304 1717.150, 1247.776 1713.678 L 1250.500 1710.955 1250.809 1599.727 C 1251.095 1496.975, 1250.666 1470.741, 1248.409 1453 C 1247.682 1447.286, 1245.051 1423.322, 1243.865 1411.608 C 1242.920 1402.280, 1243.009 1399.407, 1244.485 1391.608 C 1246.292 1382.060, 1250.443 1372.159, 1254.451 1367.836 C 1261.511 1360.222, 1269.111 1355.654, 1278 1353.682 C 1280.660 1353.092, 1316.651 1352.421, 1366 1352.043 L 1449.500 1351.404 1458 1348.589 C 1473.647 1343.409, 1484.368 1336.707, 1494.734 1325.625 C 1502.670 1317.142, 1508.120 1307.832, 1512.054 1296.039 C 1517.970 1278.304, 1518.250 1260.006, 1512.987 1235.098 C 1510.694 1224.248, 1510.488 1215.806, 1512.326 1207.999 C 1514.052 1200.669, 1514.050 1200.673, 1525.263 1188.987 C 1536.692 1177.077, 1539.190 1173.111, 1541.581 1163.086 C 1543.761 1153.951, 1542.699 1145.844, 1538.109 1136.585 L 1535.097 1130.508 1539.865 1126.337 C 1549.196 1118.174, 1554.337 1103.379, 1552.152 1090.975 C 1551.571 1087.674, 1549.455 1081.042, 1547.451 1076.237 C 1541.646 1062.319, 1540.799 1059.064, 1541.448 1053.176 C 1542.079 1047.447, 1544.657 1041.495, 1547.644 1038.867 C 1548.665 1037.968, 1551.525 1036.170, 1554 1034.871 C 1558.405 1032.559, 1559.237 1032.496, 1593.500 1031.896 C 1637.522 1031.124, 1640.699 1030.379, 1652.219 1018.131 C 1667.578 1001.802, 1670.217 981.470, 1659.373 963 C 1651.330 949.300, 1644.685 937.326, 1639.950 928 C 1634.760 917.778, 1629.839 908.948, 1619.050 890.500 C 1616.155 885.550, 1609.958 874.075, 1605.278 865 C 1600.598 855.925, 1593.073 842.200, 1588.555 834.500 C 1572.485 807.113, 1553.329 769.082, 1548.810 755.592 C 1544.088 741.497, 1540.838 723.197, 1540.851 710.767 C 1540.856 704.864, 1541.110 699.632, 1541.413 699.140 C 1541.721 698.642, 1545.451 699.058, 1549.841 700.080 C 1602.848 712.423, 1651.832 717.624, 1677.500 713.636 C 1691.620 711.442, 1699.587 707.343, 1702.958 700.539 C 1704.791 696.839, 1705.376 694.143, 1705.259 689.938 C 1705.015 681.137, 1702.689 676.686, 1694.767 669.869 C 1690.940 666.575, 1655.564 642.485, 1616.154 616.335 C 1576.744 590.186, 1543.977 568.131, 1543.338 567.325 C 1542.699 566.518, 1541.898 561.503, 1541.557 556.179 C 1537.726 496.252, 1517.004 429.998, 1485.516 377 C 1442.284 304.234, 1380.762 251.917, 1296.681 216.418 C 1278.316 208.665, 1239.552 196.193, 1227 194 C 1214.635 191.839, 1214.839 192.020, 1222.007 189.582 C 1231.061 186.503, 1237.563 182.508, 1244.055 176.037 C 1251.553 168.564, 1254.101 162.991, 1254.725 152.699 C 1255.640 137.629, 1252.196 127.138, 1243.449 118.346 C 1237.749 112.616, 1229.269 107.929, 1221.132 106.010 C 1213.028 104.099, 1198.315 105.192, 1188 108.471 C 1164.058 116.082, 1133.788 137.890, 1110.218 164.506 L 1104.937 170.470 1091.718 156.861 C 1077.272 141.989, 1064.433 131.366, 1050.467 122.732 C 1025.883 107.533, 1002.080 101.683, 986 106.888 M 990.994 128.934 C 985.324 130.659, 982.298 133.037, 979.702 137.807 C 976.369 143.931, 976.135 150.384, 979.040 156.078 C 982.898 163.641, 998.592 171.103, 1018 174.601 C 1027.412 176.298, 1052.522 177.913, 1069.500 177.915 L 1080.500 177.916 1070.129 167.918 C 1064.425 162.419, 1056.100 155.075, 1051.629 151.597 C 1029.640 134.496, 1004.097 124.949, 990.994 128.934 M 1198 130.071 C 1187.431 132.748, 1172.213 140.621, 1160.500 149.471 C 1150.646 156.916, 1130 175.534, 1130 176.974 C 1130 178.094, 1148.490 178.139, 1167 177.066 C 1199.863 175.160, 1223.442 167.523, 1230.081 156.634 C 1233.846 150.461, 1232.091 140.039, 1226.361 134.542 C 1219.441 127.903, 1211.502 126.651, 1198 130.071 M 1088.256 204.456 C 1067.654 209.953, 1043.545 222.689, 1020 240.512 C 1008.719 249.051, 987.762 269.480, 979.490 280 C 976.247 284.125, 971.251 290.425, 968.389 294 C 956.267 309.139, 941.985 333.607, 931.032 358 C 922.490 377.026, 921.205 380.083, 917.378 390.500 C 897.247 445.293, 885.976 510.126, 883.389 586.013 C 882.794 603.478, 882.898 605.670, 884.383 606.903 C 886.178 608.392, 884.007 608.510, 937.500 604.026 C 951.250 602.874, 968.800 601.488, 976.500 600.947 C 984.200 600.407, 996.575 599.493, 1004 598.918 C 1011.425 598.342, 1046.815 597.615, 1082.644 597.301 C 1146.117 596.745, 1191.717 597.658, 1222 600.089 C 1228.875 600.641, 1240.800 601.519, 1248.500 602.040 C 1256.200 602.561, 1267 603.414, 1272.500 603.937 C 1301.307 606.672, 1323.018 608.207, 1324.553 607.618 C 1326.146 607.007, 1326.226 605.205, 1325.592 584.228 C 1324.938 562.598, 1322.412 523.477, 1321.582 522.132 C 1321.368 521.784, 1320.690 516.472, 1320.076 510.326 C 1317.599 485.537, 1307.884 440.317, 1299.166 413 C 1289.048 381.296, 1272.995 343.739, 1262.711 327.709 C 1260.873 324.844, 1256.514 317.686, 1253.025 311.801 C 1240.491 290.661, 1213.465 259.490, 1194 243.722 C 1183.082 234.877, 1162.700 221.773, 1152.422 216.990 C 1121.113 202.420, 1106.547 199.574, 1088.256 204.456 M 1188 209.996 C 1188 210.423, 1192.828 214.311, 1198.729 218.636 C 1209.169 226.288, 1224.087 239.981, 1240.626 257.092 C 1258.385 275.466, 1277.268 303.411, 1292.403 333.719 C 1298.232 345.389, 1303 355.260, 1303 355.653 C 1303 356.047, 1303.884 358.198, 1304.964 360.434 C 1313.682 378.484, 1329.273 430.773, 1335.397 462.500 C 1340.009 486.390, 1341.036 492.428, 1342.472 504.051 C 1343.256 510.404, 1344.383 518.640, 1344.976 522.353 C 1346.554 532.227, 1348.980 572.276, 1348.991 588.628 C 1348.997 598.997, 1349.346 603.042, 1350.301 603.835 C 1351.240 604.614, 1353.959 604.500, 1360.051 603.428 C 1364.698 602.610, 1370.975 601.535, 1374 601.039 C 1399 596.942, 1438.085 588.693, 1467.481 581.310 C 1489.247 575.844, 1516.690 567.579, 1518.371 565.984 C 1520.750 563.727, 1513.704 514.783, 1507.433 490 C 1498.168 453.391, 1478.350 407.592, 1459.043 378.173 C 1443.588 354.624, 1436.615 345.762, 1418.870 327.123 C 1397.231 304.392, 1378.737 288.748, 1355.500 273.519 C 1332.970 258.752, 1308.736 245.946, 1286.500 237.057 C 1274.111 232.105, 1241.759 221.153, 1233 218.947 C 1217.910 215.146, 1188 209.196, 1188 209.996 M 1012.500 211.613 C 985.780 216.110, 977.078 218.208, 954.724 225.542 C 896.713 244.575, 846.839 272.988, 808.589 308.795 C 778.649 336.822, 761.997 357.594, 741.087 393 C 713.235 440.159, 695.565 498.683, 690.620 560.146 L 690.166 565.792 694.333 567.276 C 705.526 571.264, 729.695 578.380, 745.809 582.432 C 777.477 590.395, 858.007 605.326, 859.771 603.562 C 860.118 603.215, 860.295 599.010, 860.166 594.216 C 859.833 581.913, 862.548 536.801, 864.482 522.500 C 871.177 472.992, 872.554 464.867, 878.893 437.500 C 885.081 410.784, 895.996 378.475, 907.439 353 C 916.767 332.234, 927.372 312.402, 936.852 298 C 956.976 267.427, 989.728 232.723, 1012.888 217.432 C 1020.796 212.211, 1023.670 209.703, 1021.250 210.133 C 1020.837 210.207, 1016.900 210.873, 1012.500 211.613 M 676.964 587.422 C 676.159 588.204, 669.650 592.774, 662.500 597.577 C 655.350 602.380, 642.138 611.302, 633.139 617.405 C 618.792 627.134, 588.881 646.972, 553.500 670.224 C 536.256 681.556, 527.677 688.077, 528.686 689.086 C 529.185 689.585, 534.473 690.527, 540.436 691.178 C 551.575 692.394, 577.203 691.331, 592.782 689.006 C 629.612 683.509, 634.681 682.556, 668 674.857 C 707.713 665.680, 758.741 651.563, 803.500 637.372 C 820 632.140, 834.962 627.406, 836.750 626.852 C 841.531 625.370, 840.731 624.316, 834.250 623.556 C 828.784 622.915, 818.710 621.280, 805.500 618.890 C 775.394 613.443, 720.918 599.911, 695.531 591.573 C 686.198 588.508, 678.532 586, 678.495 586 C 678.459 586, 677.770 586.640, 676.964 587.422 M 1513.500 592.131 C 1475.750 603.946, 1424.697 615.797, 1384.500 622.074 C 1376.800 623.276, 1370.086 624.501, 1369.579 624.795 C 1368.345 625.511, 1368.847 625.684, 1405 636.973 C 1443.653 649.043, 1444.729 649.359, 1474.922 657.505 C 1488.354 661.130, 1499.636 664.275, 1499.992 664.495 C 1500.349 664.715, 1501.734 665.118, 1503.070 665.389 C 1504.407 665.661, 1511.800 667.505, 1519.500 669.489 C 1560.267 679.988, 1583.319 684.505, 1624 689.965 C 1644.171 692.672, 1678.190 692.144, 1681.310 689.076 C 1682.381 688.023, 1673.032 681.217, 1647.500 664.460 C 1627.816 651.541, 1581.332 620.540, 1546.727 597.253 C 1538.352 591.618, 1531.050 587.033, 1530.500 587.065 C 1529.950 587.097, 1522.300 589.377, 1513.500 592.131 M 1046.250 619.788 L 1037 620.075 1037 663.186 L 1037 706.297 1053.372 722.989 C 1062.377 732.169, 1070.425 740.765, 1071.256 742.090 C 1072.478 744.039, 1072.884 750.240, 1073.376 774.500 C 1073.711 791, 1073.988 805.288, 1073.992 806.250 C 1073.997 807.266, 1074.755 808, 1075.800 808 C 1079.440 808, 1080 809.997, 1080 822.990 L 1080 835.580 1083.250 835.396 C 1085.037 835.295, 1087.287 835.164, 1088.250 835.106 C 1089.816 835.011, 1090 833.707, 1090 822.700 C 1090 810.008, 1090.574 808, 1094.200 808 C 1095.901 808, 1096 805.938, 1096 770.321 L 1096 732.641 1080.666 717.071 C 1072.232 708.507, 1064.357 700.202, 1063.166 698.615 C 1061.034 695.775, 1061 695.139, 1061 657.979 L 1061 620.227 1058.250 619.863 C 1056.737 619.664, 1051.338 619.629, 1046.250 619.788 M 1068.931 619.750 C 1068.860 620.525, 1068.877 663.021, 1068.955 682.562 L 1069 693.624 1082.250 707.027 L 1095.500 720.429 1095.773 702.697 L 1096.046 684.964 1092.023 681.137 C 1088.570 677.852, 1088 676.714, 1088 673.105 C 1088 667.518, 1090.156 663.628, 1094.357 661.635 C 1098.870 659.493, 1101.793 659.576, 1105.696 661.956 C 1110.683 664.997, 1112.344 668.253, 1111.723 673.768 C 1111.289 677.617, 1110.519 679.076, 1107.587 681.611 L 1103.985 684.725 1104.242 746.068 L 1104.500 807.410 1107 807.999 C 1109.492 808.586, 1109.501 808.627, 1109.779 821.794 L 1110.058 835 1115.529 835 L 1121 835 1121 822.700 C 1121 810.008, 1121.574 808, 1125.200 808 C 1126.921 808, 1127 803.833, 1127 713.500 L 1127 619 1098 619 C 1082.050 619, 1068.969 619.337, 1068.931 619.750 M 1135.605 619.728 C 1135.272 620.061, 1135 646.991, 1135 679.571 L 1135 738.810 1153.293 720.155 C 1163.354 709.895, 1175.954 696.931, 1181.293 691.348 L 1191 681.195 1191 651.240 L 1191 621.285 1184.853 620.642 C 1181.473 620.289, 1176.073 620, 1172.853 620 L 1167 620 1167 637.418 L 1167 654.837 1170.328 656.894 C 1174.214 659.295, 1176 662.682, 1176 667.646 C 1176 675.700, 1170.738 681, 1162.744 681 C 1149.475 681, 1144.181 664.694, 1155.017 657.202 L 1158.924 654.500 1158.962 637.250 L 1159 620 1154.750 619.867 C 1152.412 619.793, 1147.285 619.596, 1143.355 619.428 C 1139.426 619.260, 1135.938 619.395, 1135.605 619.728 M 1009.667 621.667 C 1009.300 622.033, 1009 634.423, 1009 649.199 C 1009 678.241, 1008.804 679.534, 1003.443 685.892 C 999.037 691.118, 993.956 692.952, 983.817 692.978 C 976.273 692.997, 975.058 693.241, 974.550 694.842 C 973.628 697.747, 969.501 701.099, 965.847 701.910 C 960.968 702.992, 956.626 701.477, 953.102 697.463 C 945.274 688.548, 953.282 674.330, 964.903 676.510 C 967.209 676.942, 969.804 678.571, 972.201 681.091 C 975.905 684.985, 975.951 685, 983.710 684.996 C 992.858 684.992, 996.735 683.185, 999.330 677.717 C 1000.755 674.714, 1001 670.438, 1001 648.567 C 1001 628.962, 1000.706 622.835, 999.750 622.503 C 999.063 622.264, 991.525 622.615, 983 623.284 L 967.500 624.500 967.230 646.250 L 966.961 668 962.980 668 L 959 668 959 647.097 L 959 626.195 950.750 626.588 C 946.212 626.804, 940.567 627.323, 938.204 627.741 L 933.908 628.500 933.976 668.459 C 934.050 711.864, 933.936 710.945, 939.718 714.736 C 942.098 716.296, 945.706 716.537, 970.954 716.820 C 992.525 717.062, 1000.003 717.464, 1001.558 718.467 C 1004.687 720.485, 1039.923 755.009, 1041.297 757.403 C 1042.100 758.802, 1042.666 767.474, 1043 783.456 L 1043.500 807.413 1046 808 C 1048.493 808.586, 1048.501 808.627, 1048.779 821.794 L 1049.058 835 1054.500 835 L 1059.942 835 1060.221 821.750 C 1060.492 808.868, 1060.562 808.491, 1062.750 808.180 L 1065 807.861 1065 777.148 L 1065 746.436 1048.250 729.096 C 1039.037 719.559, 1030.953 710.799, 1030.285 709.628 C 1029.386 708.052, 1029.062 696.286, 1029.035 664.250 L 1029 621 1019.667 621 C 1014.533 621, 1010.033 621.300, 1009.667 621.667 M 1198.871 627.230 C 1198.800 630.678, 1198.833 644.371, 1198.944 657.658 C 1199.111 677.519, 1198.878 682.334, 1197.639 684.731 C 1196.035 687.833, 1184.075 700.570, 1153.787 731.432 L 1135.075 750.500 1135.037 778.695 L 1135 806.891 1137.750 808.206 C 1140.498 809.520, 1140.500 809.533, 1141 822.450 L 1141.500 835.379 1146 835.403 L 1150.500 835.428 1150.782 823.027 C 1151.068 810.489, 1151.762 808, 1154.972 808 C 1156.445 808, 1156.793 806.570, 1157.344 798.250 C 1157.699 792.888, 1157.992 781.558, 1157.995 773.072 L 1158 757.645 1186.711 728.822 L 1215.423 700 1220.247 700 C 1222.900 700, 1226.097 699.327, 1227.352 698.505 C 1228.607 697.683, 1244.193 682.120, 1261.988 663.920 C 1284.272 641.129, 1293.948 630.586, 1293.077 630.047 C 1291.710 629.203, 1291.577 629.187, 1254.643 625.417 C 1240.972 624.022, 1229.629 623.037, 1229.437 623.230 C 1229.244 623.422, 1229.014 628.242, 1228.924 633.940 L 1228.761 644.300 1232.296 647.400 C 1236.708 651.270, 1238.001 653.829, 1237.996 658.684 C 1237.989 666.065, 1231.831 672, 1224.180 672 C 1217.312 672, 1210.160 663.293, 1211.437 656.486 C 1212.164 652.608, 1216.114 647.416, 1219.044 646.486 C 1220.836 645.917, 1221 644.901, 1221 634.401 C 1221 626.102, 1220.655 622.831, 1219.750 622.552 C 1219.063 622.339, 1214.112 621.894, 1208.750 621.563 L 1199 620.960 1198.871 627.230 M 908 630.597 C 902.775 631.357, 897.938 632.194, 897.250 632.458 C 896.275 632.832, 896 643.032, 896 678.800 L 896 724.662 898.455 725.976 C 901.155 727.421, 904 732.564, 904 736 C 904 739.640, 900.909 744.995, 897.915 746.544 C 892.890 749.142, 887.607 748.438, 883.571 744.632 C 880.583 741.813, 880 740.582, 880 737.082 C 880 732.056, 881.983 727.896, 885.467 725.613 L 888.037 723.930 887.979 680 C 887.948 655.838, 887.552 635.841, 887.100 635.562 C 886.649 635.283, 886.008 635.325, 885.677 635.657 C 885.346 635.988, 880.220 637.888, 874.287 639.879 L 863.500 643.500 863.234 670.525 L 862.969 697.550 865.863 699.260 C 873.734 703.910, 873.864 717.696, 866.080 722.294 C 862.531 724.390, 855.870 724.501, 852.053 722.527 C 848.136 720.502, 844.613 713.073, 845.527 708.764 C 846.378 704.750, 850.306 699.355, 852.999 698.500 C 854.933 697.887, 855 696.990, 855 671.865 L 855 645.865 852.750 646.526 C 851.513 646.890, 845.438 648.786, 839.250 650.740 L 828 654.293 828 664.121 C 828 673.861, 828.025 673.961, 830.785 675.389 C 835.764 677.963, 837.957 685.182, 835.398 690.573 C 833.175 695.259, 830.420 697, 825.228 697 C 819.450 697, 815.637 694.862, 813.542 690.447 C 811.152 685.410, 812.218 680.474, 816.585 676.355 C 819.923 673.207, 820 672.953, 820 665.067 C 820 660.630, 819.683 657, 819.295 657 C 818.443 657, 773.620 670.109, 773.217 670.476 C 773.061 670.617, 798.413 696.106, 829.554 727.117 C 860.695 758.127, 886.810 784.715, 887.587 786.200 C 888.711 788.348, 889.004 795.003, 889.021 818.700 L 889.041 848.500 901.078 860.750 L 913.116 873 924.950 873 C 936.738 873, 936.786 872.990, 937.411 870.500 C 937.764 869.093, 938.795 867.964, 939.769 867.917 C 940.721 867.872, 947.125 867.705, 954 867.547 L 966.500 867.259 967.094 861.860 C 967.858 854.911, 970.078 850.325, 975.169 845.184 C 980.359 839.942, 986.928 836.753, 993.696 836.192 L 999 835.752 999.015 823.126 C 999.024 816.182, 999.361 809.990, 999.765 809.366 C 1000.169 808.742, 1001.400 808.059, 1002.500 807.848 C 1004.415 807.481, 1004.485 806.810, 1004.154 791.982 C 1003.964 783.467, 1003.514 775.977, 1003.154 775.338 C 1002.794 774.700, 997.922 769.412, 992.326 763.588 L 982.153 753 965.536 753 L 948.920 753 945.115 757 C 941.757 760.530, 940.772 761, 936.732 761 C 927.792 761, 921.868 751.992, 925.696 744.219 C 928.362 738.806, 933 736.470, 938.836 737.601 C 942.479 738.307, 943.908 739.190, 945.488 741.711 L 947.500 744.923 964 745.036 C 982.988 745.166, 984.237 745.321, 988.029 748.021 C 994.122 752.359, 1010.979 771.265, 1011.986 774.890 C 1012.538 776.875, 1012.991 785.138, 1012.994 793.250 C 1013 806.785, 1013.148 808, 1014.800 808 C 1018.445 808, 1019 809.994, 1019 823.084 L 1019 835.768 1023.593 835.458 C 1026.118 835.288, 1028.342 834.992, 1028.533 834.800 C 1028.724 834.609, 1028.965 829.568, 1029.067 823.599 C 1029.292 810.485, 1029.608 809.099, 1032.637 807.948 L 1035 807.050 1035 785.459 C 1035 771.134, 1034.613 763.134, 1033.851 761.684 C 1032.561 759.232, 999.439 726.352, 996.816 724.920 C 995.889 724.414, 983.162 724, 968.534 724 C 939.624 724, 937.375 723.648, 931.726 718.237 C 926.429 713.163, 926 709.349, 926 667.318 L 926 629 921.750 629.107 C 919.413 629.167, 913.225 629.837, 908 630.597 M 1272.425 664.506 C 1254.316 683.020, 1239.373 698.510, 1239.219 698.928 C 1239.064 699.346, 1247.073 699.622, 1257.016 699.541 L 1275.094 699.394 1305.025 669.475 C 1321.487 653.020, 1334.629 639.285, 1334.228 638.955 C 1333.197 638.102, 1313.218 632.175, 1308.925 631.449 L 1305.351 630.843 1272.425 664.506 M 1311.123 674.500 L 1278.911 707 1249.516 707 L 1220.121 707 1193.113 733.961 C 1171.414 755.621, 1165.988 761.568, 1165.510 764.211 C 1165.182 766.020, 1165.046 776.480, 1165.207 787.456 L 1165.500 807.411 1168 807.999 C 1170.493 808.586, 1170.501 808.627, 1170.779 821.794 L 1171.058 835 1176.500 835 L 1181.942 835 1182.221 821.794 C 1182.499 808.626, 1182.507 808.586, 1185 808.001 L 1187.500 807.414 1188 790.442 C 1188.438 775.565, 1188.753 773.070, 1190.553 770.233 C 1193.006 766.363, 1215.214 743.562, 1218.853 741.176 C 1221.019 739.755, 1224.999 739.448, 1244.987 739.161 L 1268.566 738.821 1270.187 735.996 C 1275.286 727.113, 1288.694 727.707, 1293.515 737.029 C 1295.547 740.959, 1295.372 746.877, 1293.114 750.580 C 1291.138 753.820, 1285.667 757, 1282.067 757 C 1278.269 757, 1273.317 754.291, 1270.375 750.603 L 1267.500 747 1245.499 747 L 1223.498 747 1212.499 758.181 C 1194.674 776.301, 1196 773.610, 1196 791.662 L 1196 807.050 1198.471 807.989 C 1200.906 808.915, 1200.945 809.117, 1201.221 822.214 L 1201.500 835.500 1207.634 836.087 C 1221.443 837.409, 1234 850.790, 1234 864.182 L 1234 867 1245.500 867.125 C 1251.825 867.194, 1257.450 867.362, 1258 867.500 C 1258.550 867.638, 1259.869 867.806, 1260.930 867.875 C 1262.121 867.952, 1262.983 868.862, 1263.180 870.250 C 1263.489 872.424, 1263.910 872.509, 1275.605 872.780 L 1287.710 873.059 1299.342 861.280 L 1310.974 849.500 1311.024 774.500 L 1311.074 699.500 1336.420 673.674 C 1350.361 659.469, 1361.257 647.660, 1360.633 647.431 C 1356.351 645.858, 1344.530 642, 1343.992 642 C 1343.630 642, 1328.839 656.625, 1311.123 674.500 M 1344.872 676.704 L 1319 702.407 1319 777.146 L 1319 851.885 1308.584 863.292 C 1302.855 869.566, 1296.394 876.104, 1294.228 877.820 C 1290.314 880.920, 1290.201 880.942, 1276.906 881.220 C 1264.432 881.481, 1263.499 881.636, 1263.147 883.500 C 1262.939 884.600, 1262.258 885.831, 1261.634 886.235 C 1261.010 886.639, 1254.537 886.976, 1247.250 886.985 L 1234 887 1234 892 L 1234 897 1247.250 897.015 C 1254.537 897.024, 1261.010 897.361, 1261.634 897.765 C 1262.258 898.169, 1262.939 899.400, 1263.147 900.500 C 1263.506 902.396, 1264.434 902.515, 1281.013 902.785 C 1290.631 902.942, 1299.625 902.793, 1301 902.455 C 1303.393 901.867, 1399.529 805.693, 1403.104 800.312 C 1404.503 798.206, 1404.649 794.604, 1404.253 772.080 C 1403.893 751.624, 1404.080 745.726, 1405.152 743.680 C 1405.896 742.260, 1420.116 727.382, 1436.752 710.618 C 1453.389 693.854, 1467 679.900, 1467 679.609 C 1467 679.318, 1465.313 678.612, 1463.250 678.040 C 1460.144 677.179, 1442.487 672.007, 1436.980 670.346 C 1436.009 670.053, 1430.212 675.236, 1420.932 684.693 C 1412.943 692.837, 1398.895 707.150, 1389.715 716.500 L 1373.025 733.500 1373.012 753.790 L 1373 774.080 1377 777.885 C 1380.262 780.988, 1381 782.374, 1381 785.395 C 1381 793.265, 1376.372 798, 1368.677 798 C 1364.464 798, 1363.337 797.537, 1360.400 794.600 C 1357.502 791.702, 1357 790.509, 1357 786.521 C 1357 782.404, 1357.483 781.350, 1361.030 777.732 L 1365.059 773.622 1364.959 752.288 L 1364.860 730.955 1367.529 727.728 C 1368.997 725.952, 1382.825 711.784, 1398.258 696.242 C 1413.691 680.701, 1426.134 667.832, 1425.909 667.644 C 1425.684 667.457, 1420.325 665.654, 1414 663.638 L 1402.500 659.974 1374.500 688.635 C 1359.100 704.398, 1346.217 718.242, 1345.870 719.398 C 1345.524 720.554, 1345.182 740.850, 1345.111 764.500 L 1344.982 807.500 1348.033 809.227 C 1350.962 810.886, 1354 816.150, 1354 819.567 C 1354 822.616, 1350.977 827.582, 1348.080 829.294 C 1339.777 834.198, 1330 828.304, 1330 818.395 C 1330 815.378, 1330.737 813.989, 1333.971 810.913 L 1337.942 807.135 1338.221 760.700 L 1338.500 714.265 1342.906 709.382 C 1345.329 706.697, 1357.658 694.030, 1370.305 681.232 C 1382.951 668.435, 1393.118 657.823, 1392.899 657.649 C 1392.325 657.196, 1372.373 651, 1371.486 651 C 1371.078 651, 1359.102 662.567, 1344.872 676.704 M 1220.333 655.615 C 1218.798 657.957, 1218.773 658.506, 1220.091 660.865 C 1221.847 664.010, 1226.945 664.977, 1228.960 662.548 C 1230.599 660.573, 1230.621 656.453, 1229.003 654.503 C 1226.952 652.032, 1222.289 652.630, 1220.333 655.615 M 1158.655 663.829 C 1156.430 666.288, 1156.568 669.568, 1159 672 C 1161.630 674.630, 1164.155 674.528, 1166.826 671.686 C 1169.530 668.807, 1169.581 666.581, 1167 664 C 1164.504 661.504, 1160.827 661.429, 1158.655 663.829 M 751 676.619 C 744.675 678.539, 725.550 683.648, 708.500 687.973 L 677.500 695.836 675.801 705.168 C 674.866 710.300, 674.079 715.288, 674.051 716.250 C 674.003 717.895, 677.179 718, 727.165 718 L 780.329 718 803.915 741.410 C 846.007 783.189, 857.863 795.450, 858.941 798.315 C 859.602 800.073, 860 812.651, 860 831.808 L 860 862.486 880.322 882.743 L 900.643 903 918.822 903 C 936.149 903, 937 902.909, 937 901.059 C 937 899.991, 937.563 898.754, 938.250 898.309 C 938.938 897.864, 945.533 897.275, 952.906 897 L 966.313 896.500 966.312 892 L 966.310 887.500 952.971 887.220 C 939.329 886.933, 937 886.300, 937 882.878 C 937 881.139, 936.055 881, 924.194 881 C 912.063 881, 911.207 880.867, 907.944 878.467 C 903.703 875.347, 885.644 856.912, 883.249 853.258 C 881.711 850.910, 881.440 846.905, 881 820.016 L 880.500 789.443 822.171 731.471 C 790.090 699.587, 763.540 673.417, 763.171 673.315 C 762.802 673.212, 757.325 674.700, 751 676.619 M 1447.932 710.750 C 1432.280 726.563, 1417.792 741.414, 1415.737 743.753 L 1412 748.006 1412 774.926 L 1412 801.847 1409.411 804.923 L 1406.822 808 1422.507 808 C 1440.120 808, 1441.546 807.581, 1446.250 801.017 L 1449 797.180 1449 777.667 L 1449 758.153 1451.707 754.827 C 1453.196 752.997, 1458.259 747.539, 1462.957 742.699 C 1471.412 733.989, 1471.501 733.844, 1471.568 728.691 C 1471.679 720.224, 1476.274 715.436, 1484.093 715.641 C 1494.127 715.904, 1498.947 726.562, 1492.902 735.118 C 1490.436 738.608, 1485.844 740.399, 1481.264 739.655 C 1477.623 739.065, 1477.392 739.232, 1467.320 749.777 L 1457.079 760.500 1457.040 775.750 L 1457 791 1473.750 790.997 L 1490.500 790.994 1492.467 788.059 C 1494.838 784.519, 1497.894 783, 1502.643 783 C 1510.664 783, 1516.081 790.273, 1513.950 798.185 C 1512.251 804.495, 1509.109 807, 1502.891 807 C 1498.124 807, 1497.373 806.666, 1493.885 803 L 1490.080 799 1473.608 799 L 1457.136 799 1454.911 802.250 C 1451.541 807.173, 1445.823 812.995, 1442.800 814.582 C 1440.726 815.671, 1435.376 816, 1419.749 816 L 1399.399 816 1380.507 835.250 C 1328.452 888.289, 1309.234 907.481, 1306.500 909.155 C 1303.856 910.775, 1301.157 910.993, 1283.750 910.996 C 1267.302 910.999, 1264 911.239, 1264 912.429 C 1264 913.214, 1263.293 914.564, 1262.429 915.429 C 1261.156 916.701, 1258.303 917, 1247.429 917 L 1234 917 1234 922 L 1234 927 1248.087 927 L 1262.174 927 1263.306 930 L 1264.438 933 1289.076 933 L 1313.714 933 1349.987 896 L 1386.259 859 1464.553 859 L 1542.847 859 1545.774 861.463 C 1548.472 863.733, 1553.988 873.714, 1574.257 913 C 1596.908 956.902, 1601.425 965.211, 1602.878 965.644 C 1607.853 967.126, 1611.422 969.765, 1612.749 972.941 C 1614.877 978.034, 1613.757 982.865, 1609.549 986.750 C 1605.063 990.892, 1599.971 991.148, 1594.595 987.500 L 1590.911 985 1563.031 985 L 1535.151 985 1526.326 993.819 C 1521.472 998.669, 1509.652 1010.805, 1500.059 1020.787 C 1489.692 1031.576, 1481.419 1039.356, 1479.660 1039.969 C 1477.824 1040.609, 1461.949 1041, 1437.819 1041 C 1406.908 1041, 1398.276 1040.716, 1395.718 1039.615 C 1393.908 1038.836, 1377.884 1023.518, 1359.105 1004.615 L 1325.711 971 1295.093 971 L 1264.474 971 1263.487 973.250 C 1262.547 975.392, 1261.828 975.524, 1248.500 976 L 1234.500 976.500 1234.500 981.500 L 1234.500 986.500 1248.500 987 L 1262.500 987.500 1262.816 990.250 L 1263.133 993 1289.032 993 L 1314.930 993 1318.715 996.242 C 1325.045 1001.665, 1380.414 1057.979, 1381.715 1060.317 C 1382.635 1061.971, 1382.938 1079.976, 1382.965 1134.660 L 1383 1206.820 1379.140 1211.703 C 1373.984 1218.226, 1369.355 1222, 1366.511 1222 C 1365.226 1222, 1328.698 1222.224, 1285.337 1222.498 C 1241.977 1222.771, 1204.935 1222.702, 1203.023 1222.344 C 1200.197 1221.814, 1195.753 1217.906, 1179.299 1201.479 C 1168.163 1190.363, 1158.590 1180.053, 1158.026 1178.568 C 1157.441 1177.029, 1157 1166.673, 1157 1154.454 L 1157 1133.038 1154.500 1132.411 C 1153.125 1132.066, 1151.944 1131.382, 1151.875 1130.892 C 1151.806 1130.401, 1151.638 1129.550, 1151.500 1129 C 1151.362 1128.450, 1151.194 1122.600, 1151.125 1116 L 1151 1104 1145.750 1103.999 L 1140.500 1103.999 1140.828 1117.054 C 1141.171 1130.726, 1140.607 1133, 1136.878 1133 C 1135.088 1133, 1135 1134.247, 1135 1159.692 L 1135 1186.384 1154.750 1205.957 C 1165.612 1216.721, 1178.184 1229.010, 1182.687 1233.264 L 1190.873 1241 1288.687 1240.985 C 1347.702 1240.975, 1387.095 1240.598, 1388 1240.033 C 1388.825 1239.518, 1392.313 1236.267, 1395.750 1232.808 L 1402 1226.519 1402 1162.920 L 1402 1099.321 1399.498 1098.181 C 1393.391 1095.398, 1390.829 1084.030, 1395.088 1078.615 C 1401.915 1069.937, 1414.755 1071.553, 1418.581 1081.573 C 1420.922 1087.702, 1419.422 1092.763, 1413.966 1097.148 L 1410 1100.335 1410 1164.862 L 1410 1229.390 1400.195 1239.195 L 1390.390 1249 1289.945 1248.965 C 1213.067 1248.937, 1188.990 1248.644, 1187.327 1247.715 C 1186.131 1247.047, 1180.619 1242.303, 1175.077 1237.174 L 1165 1227.849 1164.817 1241.674 C 1164.716 1249.278, 1164.578 1263.600, 1164.509 1273.500 L 1164.384 1291.500 1168.192 1295.096 C 1171.663 1298.375, 1172 1299.158, 1172 1303.946 C 1172 1308.588, 1171.604 1309.596, 1168.600 1312.600 C 1160.826 1320.374, 1148.948 1314.453, 1148.689 1302.674 C 1148.612 1299.193, 1149.139 1298.205, 1152.800 1294.955 L 1157 1291.228 1157 1255.347 L 1157 1219.466 1146.200 1208.699 C 1140.260 1202.778, 1135.085 1198.248, 1134.700 1198.633 C 1134.315 1199.018, 1134 1208.085, 1134 1218.781 L 1134 1238.228 1138.010 1241.864 C 1141.979 1245.464, 1142.541 1247.100, 1142.141 1253.905 C 1142.060 1255.284, 1140.294 1257.932, 1138 1260.115 L 1134 1263.920 1134.035 1358.710 C 1134.063 1431.250, 1134.356 1453.969, 1135.285 1455.500 C 1135.953 1456.600, 1141.112 1461.972, 1146.750 1467.437 L 1157 1477.374 1157 1410.837 L 1157 1344.300 1159.915 1340.400 C 1161.519 1338.255, 1178.057 1321.144, 1196.665 1302.376 C 1224.510 1274.293, 1231.098 1268.141, 1233.875 1267.626 C 1235.731 1267.282, 1275.114 1267, 1321.391 1267 L 1405.533 1267 1416.766 1255.734 L 1428 1244.469 1428.007 1192.984 C 1428.013 1145.458, 1428.149 1141.294, 1429.779 1138.822 C 1430.751 1137.349, 1441.650 1125.699, 1454.001 1112.932 L 1476.456 1089.720 1476.478 1083.883 C 1476.508 1075.965, 1479.399 1072.880, 1487.413 1072.216 C 1492.684 1071.779, 1493.129 1071.929, 1496.478 1075.278 C 1499.238 1078.038, 1500 1079.601, 1500 1082.499 C 1500 1091.127, 1494.342 1096.637, 1486.401 1095.742 L 1482.133 1095.261 1472.348 1105.380 C 1466.967 1110.946, 1456.587 1121.611, 1449.282 1129.080 L 1436 1142.660 1436 1193.362 C 1436 1234.551, 1435.738 1244.668, 1434.604 1247.282 C 1433.836 1249.052, 1427.754 1255.900, 1421.088 1262.500 L 1408.969 1274.500 1322.186 1274.766 L 1235.404 1275.032 1201.007 1309.478 C 1182.089 1328.423, 1166.020 1344.954, 1165.297 1346.212 C 1164.242 1348.049, 1164.015 1361.916, 1164.149 1416.500 L 1164.315 1484.500 1183.158 1503.606 C 1199.575 1520.253, 1202.027 1523.148, 1202.209 1526.106 C 1202.324 1527.973, 1202.437 1553.537, 1202.459 1582.915 C 1202.493 1627.295, 1202.732 1636.409, 1203.874 1636.790 C 1204.629 1637.042, 1206.586 1638.445, 1208.222 1639.907 C 1213.843 1644.929, 1212.842 1655.647, 1206.307 1660.417 C 1202.841 1662.947, 1194.631 1662.847, 1191.059 1660.231 C 1187.824 1657.863, 1185.002 1652.395, 1185.005 1648.500 C 1185.008 1644.662, 1188.275 1639.287, 1191.498 1637.819 C 1193.786 1636.777, 1194.007 1636.114, 1194.077 1630.089 C 1194.119 1626.465, 1194.330 1601.675, 1194.547 1575 L 1194.939 1526.500 1160.970 1492.778 L 1127 1459.057 1127 1361.488 L 1127 1263.920 1123 1260.115 C 1120.800 1258.022, 1118.944 1255.340, 1118.875 1254.155 C 1118.421 1246.323, 1118.877 1244.881, 1123.009 1241.104 L 1127.018 1237.440 1126.759 1184.983 C 1126.504 1133.424, 1126.466 1132.521, 1124.500 1132.148 C 1123.400 1131.939, 1122.169 1131.258, 1121.765 1130.634 C 1121.361 1130.010, 1121.024 1123.763, 1121.015 1116.750 L 1121 1104 1115.500 1104 L 1110 1104 1110 1117.587 L 1110 1131.174 1107 1132.306 L 1104 1133.438 1104 1187.269 C 1104 1235.101, 1103.818 1241.456, 1102.366 1244.300 C 1101.468 1246.060, 1091.862 1256.500, 1081.021 1267.500 C 1070.179 1278.500, 1060.564 1288.613, 1059.654 1289.973 C 1058.191 1292.159, 1058 1296.630, 1058 1328.666 L 1058 1364.887 1060.939 1366.623 C 1065.297 1369.197, 1067.425 1373.801, 1066.710 1379.108 L 1066.118 1383.500 1085.059 1402.606 C 1101.188 1418.875, 1104.019 1422.178, 1104.125 1424.856 C 1104.194 1426.585, 1104.362 1428.450, 1104.500 1429 C 1104.638 1429.550, 1104.806 1437.930, 1104.875 1447.621 L 1105 1465.242 1135.082 1495.516 C 1160.453 1521.050, 1165.305 1526.394, 1166.067 1529.645 C 1166.564 1531.769, 1166.953 1567.361, 1166.931 1608.896 C 1166.910 1650.364, 1167.254 1684.622, 1167.696 1685.026 C 1169.255 1686.447, 1203.692 1692.242, 1218 1693.489 C 1222.125 1693.849, 1226.311 1694.374, 1227.303 1694.656 C 1229.034 1695.148, 1229.089 1690.813, 1228.698 1585.834 C 1228.474 1525.700, 1227.990 1474.475, 1227.622 1472 C 1227.254 1469.525, 1226.260 1460.750, 1225.411 1452.500 C 1224.563 1444.250, 1223.224 1432.171, 1222.435 1425.658 C 1218.535 1393.472, 1222.421 1372.515, 1235.432 1355.559 C 1238.411 1351.677, 1243.020 1346.854, 1245.674 1344.841 C 1254.452 1338.186, 1267.220 1332.670, 1279 1330.442 C 1280.925 1330.078, 1318.050 1329.575, 1361.500 1329.323 C 1447.710 1328.824, 1448.472 1328.775, 1460.849 1322.983 C 1473.089 1317.256, 1481.156 1309.252, 1487.540 1296.500 C 1495.834 1279.934, 1496.542 1269.821, 1491.376 1241.704 C 1489.203 1229.878, 1488.851 1225.557, 1489.240 1215.521 C 1489.543 1207.706, 1490.321 1201.750, 1491.462 1198.500 C 1493.936 1191.455, 1500.647 1181.912, 1510.097 1172 C 1518.937 1162.727, 1520 1160.883, 1520 1154.821 C 1520 1149.152, 1516.834 1144.173, 1510.258 1139.500 C 1499.905 1132.143, 1498 1130.113, 1498 1126.435 C 1498 1122.312, 1500.643 1119.638, 1506.919 1117.411 C 1509.439 1116.518, 1514.756 1114.238, 1518.736 1112.346 C 1524.623 1109.546, 1526.441 1108.103, 1528.491 1104.605 C 1531.483 1099.499, 1531.234 1097.170, 1526.499 1086 C 1516.596 1062.639, 1516.195 1044.730, 1525.254 1030.394 C 1528.817 1024.756, 1535.784 1018.228, 1541.233 1015.421 C 1550.627 1010.583, 1555.311 1010.013, 1590.500 1009.423 C 1608.650 1009.118, 1625.193 1008.430, 1627.263 1007.892 C 1634.601 1005.988, 1641.192 997.904, 1642.604 989.077 C 1643.628 982.674, 1642.070 979.326, 1619.536 939.500 C 1616.113 933.450, 1610.319 922.875, 1606.659 916 C 1603 909.125, 1598.612 901.025, 1596.909 898 C 1589.650 885.109, 1577.749 863.481, 1570.496 850 C 1566.205 842.025, 1558.190 827.400, 1552.685 817.500 C 1534.919 785.551, 1524.158 759.553, 1520.399 739.500 C 1519.298 733.623, 1518.622 724.081, 1518.452 712 L 1518.191 693.500 1512.845 691.710 C 1505.379 689.209, 1479.283 682, 1477.699 682 C 1476.979 682, 1463.584 694.938, 1447.932 710.750 M 958.440 686.451 C 956.537 689.356, 957.266 692.537, 960.194 694.104 C 962.835 695.517, 966.568 693.936, 967.496 691.012 C 968.441 688.035, 965.566 684, 962.500 684 C 960.999 684, 959.422 684.952, 958.440 686.451 M 857.607 705.868 C 853.974 706.662, 852.511 708.916, 853.380 712.379 C 854.336 716.188, 858.180 717.767, 861.383 715.668 C 864.729 713.476, 865.529 710.456, 863.560 707.451 C 862.677 706.103, 861.627 705.053, 861.227 705.118 C 860.827 705.183, 859.198 705.521, 857.607 705.868 M 672.496 726.250 C 671.834 728.128, 670.016 740.177, 670.008 742.750 L 670 745 718.690 745 L 767.380 745 786.285 763.750 C 796.682 774.063, 811.392 789.055, 818.973 797.066 L 832.757 811.631 833.490 823.840 C 834.135 834.564, 834.465 836.179, 836.206 837.110 C 837.296 837.694, 839.032 840.078, 840.062 842.408 C 843.409 849.974, 839.278 857.617, 831.261 858.692 C 823.961 859.671, 818 854.742, 818 847.728 C 818 842.920, 820.070 838.836, 823.415 837.046 C 825.927 835.701, 826 835.383, 826 825.795 L 826 815.928 811.534 800.714 C 803.577 792.346, 789.734 778.209, 780.771 769.299 L 764.475 753.097 717.190 752.929 C 691.184 752.837, 669.694 752.973, 669.436 753.231 C 669.177 753.489, 668.682 758.018, 668.336 763.294 L 667.706 772.888 695.320 772.323 C 710.509 772.012, 726.825 772.082, 731.579 772.478 L 740.223 773.198 764.675 797.349 L 789.126 821.500 793.313 821.181 C 801.621 820.548, 807.544 827.557, 805.971 836.158 C 804.572 843.809, 797.978 847.438, 790.668 844.579 C 784.785 842.278, 782.665 838.944, 782.574 831.849 L 782.500 826.041 773.521 817.020 L 764.542 808 739.224 808 L 713.907 808 712.324 810.759 C 707.125 819.817, 694.225 820.337, 688.960 811.701 C 683.024 801.967, 690.604 790.025, 701.916 791.290 C 705.782 791.723, 707.127 792.504, 710.500 796.278 L 714.500 800.753 734.750 800.754 C 745.888 800.755, 755 800.465, 755 800.109 C 755 799.753, 750.604 795.083, 745.232 789.731 L 735.464 780 701.091 780 L 666.717 780 667.214 805.862 C 667.488 820.086, 668.028 832.236, 668.415 832.862 C 668.923 833.684, 681.026 834, 711.994 834 C 739.803 834, 755.859 834.373, 757.685 835.062 C 759.233 835.646, 776.025 851.568, 795 870.445 L 829.500 904.767 836.206 904.916 C 842.391 905.054, 843.042 904.865, 844.604 902.481 C 846.846 899.060, 851.026 897, 855.728 897 C 860.205 897, 863.419 898.976, 865.506 903.011 C 868.013 907.860, 867.420 911.780, 863.600 915.600 C 860.641 918.559, 859.552 919, 855.206 919 C 851.051 919, 849.679 918.502, 847.039 916.036 C 844.140 913.328, 843.204 913.058, 836.183 912.902 C 831.957 912.809, 827.654 912.424, 826.620 912.046 C 825.586 911.669, 809.137 895.754, 790.066 876.680 L 755.391 842 712.128 842 C 671.403 842, 668.894 842.103, 669.361 843.750 C 669.634 844.712, 670.160 849.204, 670.531 853.731 L 671.205 861.962 693.352 862.231 L 715.500 862.500 715.817 865.257 C 716.061 867.378, 715.599 868.220, 713.817 868.903 C 712.543 869.391, 702.971 869.854, 692.547 869.932 C 682.122 870.010, 673.432 870.235, 673.234 870.433 C 672.700 870.966, 676.832 893.974, 679.587 905.810 C 683.095 920.884, 686.333 931.721, 692.117 947.750 L 697.259 962 713.531 962 L 729.802 962 731.896 958.451 C 734.139 954.650, 739.036 952, 743.818 952 C 748.239 952, 754.379 956.984, 755.800 961.728 C 757.351 966.903, 757.322 967.520, 755.330 971.717 C 753.185 976.237, 748.631 978.992, 743.297 978.996 C 737.698 979.001, 734.381 977.353, 731.894 973.328 L 729.837 970 716.418 969.850 C 709.038 969.768, 702.438 969.655, 701.750 969.600 C 701.063 969.545, 700.597 969.950, 700.715 970.500 C 701.070 972.150, 706.705 987.459, 713.414 1005 L 719.725 1021.500 731.112 1021.408 C 737.376 1021.357, 756.352 1021.245, 773.282 1021.158 L 804.064 1021 815.269 1010 L 826.474 999 804.953 999 L 783.431 999 781.594 1002.110 C 780.496 1003.969, 777.935 1006.026, 775.228 1007.223 C 771.381 1008.925, 770.134 1009.057, 766.942 1008.101 C 764.876 1007.482, 761.794 1005.390, 760.093 1003.453 C 757.568 1000.577, 757.001 999.065, 757.007 995.215 C 757.018 986.784, 761.788 982.098, 770.421 982.035 C 774.968 982.003, 775.671 982.343, 779.655 986.500 L 783.966 991 808.752 991 L 833.538 991 843.500 981 L 853.462 971 829.699 971 C 811.686 971, 805.157 970.665, 802.718 969.617 C 800.942 968.854, 787.680 956.314, 773.129 941.640 C 744.694 912.963, 745.362 913.447, 735.299 914.204 C 730.975 914.529, 729.794 915.132, 726.315 918.789 C 722.843 922.439, 721.747 923, 718.089 923 C 715.768 923, 712.904 922.484, 711.726 921.853 C 706.339 918.970, 703.971 912.370, 706.327 906.803 C 708.407 901.887, 711.357 899.768, 716.860 899.239 C 721.362 898.807, 722.050 899.051, 725.741 902.385 C 729.666 905.931, 729.903 906, 738.121 906.006 C 743.296 906.010, 747.513 906.541, 749.149 907.395 C 750.607 908.155, 763.831 920.977, 778.537 935.888 L 805.276 963 871.071 963 L 936.867 963 937.184 960.250 L 937.500 957.500 951.750 957.223 L 966 956.945 966 951.973 L 966 947 953.582 947 C 939.609 947, 938.215 946.695, 936.948 943.364 L 936.050 941 876.475 941 C 826.660 941, 816.458 940.765, 814.200 939.566 C 812.715 938.777, 798.678 925.277, 783.007 909.566 L 754.513 881 748.791 881 C 743.817 881, 742.608 880.594, 739.535 877.896 C 736.521 875.250, 736 874.161, 736 870.507 C 736 865.090, 738.290 862.181, 743.500 860.978 C 751.077 859.230, 758 863.739, 758 870.422 C 758 873.224, 761.316 876.879, 787.820 903.287 L 817.640 933 877.320 933 C 934.123 933, 937 932.913, 937 931.200 C 937 927.535, 938.977 927, 952.533 927 C 959.757 927, 965.860 926.807, 966.096 926.571 C 966.332 926.334, 966.362 924.084, 966.162 921.571 L 965.799 917 953.334 917 C 940.237 917, 937 916.200, 937 912.965 C 937 911.085, 936.226 911, 919.020 911 C 905.255 911, 900.157 910.644, 897.270 909.480 C 893.059 907.783, 855.390 869.833, 853.295 865.177 C 852.442 863.282, 852.077 853.449, 852.045 831.515 L 852 800.529 814.235 762.765 L 776.471 725 724.704 725 C 684.192 725, 672.841 725.272, 672.496 726.250 M 1280 737.694 C 1275.963 739.137, 1274.745 744.554, 1277.829 747.345 C 1280.288 749.570, 1283.568 749.432, 1286 747 C 1288.639 744.361, 1288.523 742.432, 1285.545 739.455 C 1283.018 736.927, 1282.556 736.780, 1280 737.694 M 695.655 800.829 C 690.466 806.563, 699.481 813.519, 704.977 808.023 C 707.067 805.933, 706.840 803.833, 704.193 800.750 C 702.235 798.470, 697.753 798.511, 695.655 800.829 M 1518.256 824.645 C 1516.472 825.524, 1514.126 827.678, 1513.043 829.430 L 1511.074 832.616 1480.527 832.696 L 1449.980 832.775 1448.325 829.973 C 1446.225 826.419, 1443.102 825, 1437.376 825 C 1433.729 825, 1432.291 825.556, 1429.997 827.850 C 1421.997 835.849, 1427.160 848, 1438.559 848 C 1442.797 848, 1443.718 847.570, 1447.099 844.017 L 1450.888 840.034 1480.291 840.267 L 1509.694 840.500 1514.309 845.250 C 1518.517 849.579, 1519.339 850, 1523.595 850 C 1535.443 850, 1541.674 838.372, 1534.913 828.877 C 1532.581 825.603, 1527.603 822.985, 1523.782 823.023 C 1522.527 823.035, 1520.040 823.765, 1518.256 824.645 M 1520.128 833.564 C 1517.132 837.373, 1519.238 842, 1523.967 842 C 1529.175 842, 1531.872 836.004, 1528.171 832.655 C 1525.534 830.268, 1522.446 830.617, 1520.128 833.564 M 992.564 848.114 C 987.675 849.272, 982.549 853.096, 980.249 857.302 C 978.614 860.292, 978.500 867.633, 978.500 970.163 L 978.500 1079.826 981.500 1084.074 C 983.150 1086.410, 986.300 1089.262, 988.500 1090.411 C 992.496 1092.498, 992.609 1092.500, 1100.965 1092.195 C 1220.810 1091.858, 1213.397 1092.279, 1218.563 1085.506 C 1219.911 1083.739, 1221.444 1079.865, 1221.969 1076.897 C 1222.546 1073.640, 1222.841 1029.602, 1222.712 965.837 L 1222.500 860.173 1219.486 855.885 C 1217.829 853.526, 1214.904 850.674, 1212.986 849.548 C 1209.536 847.521, 1208.386 847.498, 1103 847.342 C 1040.098 847.248, 994.889 847.564, 992.564 848.114 M 1015.821 868.382 C 1010.041 869.954, 1004.772 873.877, 1001.211 879.258 L 998.500 883.354 998.500 970.005 L 998.500 1056.657 1001.526 1061.552 C 1003.402 1064.586, 1006.414 1067.598, 1009.447 1069.474 L 1014.342 1072.500 1098.346 1072.772 C 1191.838 1073.075, 1188.648 1073.285, 1195.553 1066.380 C 1203.043 1058.890, 1202.500 1066.389, 1202.500 970.500 L 1202.500 884.500 1199.848 880 C 1197.136 875.399, 1194.188 872.765, 1188 869.415 C 1184.655 867.604, 1180.869 867.511, 1102.500 867.314 C 1038.692 867.154, 1019.462 867.391, 1015.821 868.382 M 1383.500 873.750 C 1376.326 880.667, 1336.648 921.116, 1329.547 928.750 L 1325.594 933 1411.771 933 L 1497.949 933 1499.541 929.921 C 1502.446 924.304, 1511.682 922.289, 1517.701 925.960 C 1526.666 931.426, 1525.809 945.675, 1516.276 949.658 C 1509.900 952.322, 1502.528 949.852, 1499.154 943.921 L 1497.500 941.013 1380.750 941.006 C 1316.537 941.003, 1264 941.364, 1264 941.809 C 1264 942.254, 1263.375 943.472, 1262.612 944.516 C 1261.387 946.192, 1259.652 946.446, 1247.862 946.678 L 1234.500 946.941 1234.500 951.721 L 1234.500 956.500 1248.457 957 C 1262.348 957.498, 1262.417 957.512, 1263.002 960 L 1263.590 962.500 1321.045 963 C 1362.681 963.362, 1379.051 963.826, 1380.500 964.683 C 1381.600 965.334, 1387.217 970.621, 1392.982 976.433 L 1403.464 987 1412.232 987 C 1419.114 987, 1421 986.696, 1421 985.589 C 1421 984.813, 1422.385 983.013, 1424.077 981.589 C 1426.499 979.551, 1428.229 979, 1432.209 979 C 1436.710 979, 1437.633 979.391, 1440.632 982.571 C 1443.200 985.294, 1444 987.017, 1443.998 989.821 C 1443.996 994.557, 1441.188 1000.129, 1438 1001.721 C 1432.393 1004.523, 1423.051 1001.885, 1421.522 997.069 C 1420.919 995.169, 1420.092 995, 1411.383 995 C 1405.158 995, 1400.973 994.515, 1399.200 993.588 C 1397.715 992.811, 1391.907 987.411, 1386.294 981.588 L 1376.088 971 1357.044 971 C 1346.570 971, 1338 971.264, 1338 971.587 C 1338 971.909, 1351.673 985.859, 1368.383 1002.587 L 1398.767 1033 1415.865 1033 L 1432.962 1033 1442.731 1022.849 C 1448.104 1017.265, 1455.401 1009.728, 1458.946 1006.099 C 1465.335 999.558, 1465.389 999.455, 1465.112 994.380 C 1464.866 989.879, 1465.206 988.835, 1467.923 985.740 C 1476.966 975.441, 1492.967 985.570, 1487.672 998.242 C 1485.604 1003.193, 1481.708 1005.535, 1475.852 1005.351 L 1471.121 1005.202 1458.061 1018.550 C 1450.877 1025.892, 1445 1032.146, 1445 1032.449 C 1445 1032.752, 1452.271 1033, 1461.159 1033 L 1477.318 1033 1482.320 1027.750 C 1493.570 1015.942, 1528.666 980.624, 1530.885 978.877 C 1533.088 977.143, 1535.389 977, 1561.026 977 L 1588.783 977 1589.470 974.250 C 1589.847 972.737, 1590.899 970.676, 1591.806 969.669 C 1593.361 967.944, 1592.765 966.491, 1581.569 944.669 C 1575.031 931.926, 1565.758 914.075, 1560.963 905 C 1556.167 895.925, 1549.921 884.016, 1547.082 878.535 C 1544.244 873.054, 1541.377 868.223, 1540.711 867.800 C 1540.045 867.377, 1505.975 867.024, 1465 867.016 L 1390.500 867.001 1383.500 873.750 M 1017.741 878.417 C 1013.101 880.088, 1011.279 881.560, 1009.434 885.128 C 1008.223 887.469, 1008 900.597, 1008 969.549 C 1008 1061.341, 1007.553 1055.896, 1015.468 1060.534 L 1019.676 1063 1100.378 1063 C 1177.770 1063, 1181.232 1062.922, 1184.790 1061.095 C 1186.830 1060.048, 1189.400 1057.685, 1190.500 1055.845 C 1192.457 1052.572, 1192.500 1050.718, 1192.500 969.902 C 1192.500 878.715, 1192.874 883.952, 1186.063 879.716 L 1182.500 877.500 1102 877.282 C 1036.414 877.104, 1020.804 877.315, 1017.741 878.417 M 1402 884.735 C 1399.347 885.208, 1379.013 905.438, 1376.503 910.101 C 1375.291 912.353, 1375.305 912.990, 1376.608 914.851 C 1378.109 916.994, 1378.244 917, 1421.489 917 C 1463.310 917, 1464.887 917.069, 1465.472 918.911 C 1466.890 923.380, 1475.799 926.189, 1480.631 923.691 C 1484.727 921.573, 1486.649 919.047, 1487.413 914.778 C 1488.537 908.503, 1484.079 902.437, 1478 901.971 C 1472.475 901.546, 1470.652 902.148, 1467.300 905.500 L 1463.800 909 1425.658 909 L 1387.515 909 1395.508 901.018 L 1403.500 893.036 1461.868 892.922 C 1509.610 892.828, 1520.465 893.053, 1521.496 894.154 C 1522.188 894.894, 1528.027 905.533, 1534.470 917.796 L 1546.185 940.091 1544.592 943.447 C 1540.107 952.899, 1545.728 962, 1556.050 962 C 1559.436 962, 1560.826 961.374, 1563.600 958.600 C 1566.427 955.773, 1566.999 954.466, 1566.996 950.850 C 1566.991 944.373, 1564.135 940.388, 1558.290 938.702 L 1553.500 937.321 1541.500 914.224 C 1534.900 901.521, 1528.317 889.636, 1526.872 887.814 L 1524.244 884.500 1464.372 884.395 C 1431.442 884.337, 1403.375 884.490, 1402 884.735 M 1507.223 932.557 C 1502.876 935.601, 1505.587 943, 1511.048 943 C 1513.079 943, 1517 938.888, 1517 936.758 C 1517 935.041, 1512.500 931, 1510.588 931 C 1509.959 931, 1508.445 931.701, 1507.223 932.557 M 738.997 961.503 C 738.311 962.330, 737.750 964.128, 737.750 965.500 C 737.750 968.922, 739.721 971, 742.967 971 C 745.843 971, 749 968.328, 749 965.894 C 749 965.097, 748.299 963.445, 747.443 962.223 C 745.624 959.625, 740.891 959.222, 738.997 961.503 M 836.385 999.353 C 813.630 1022.490, 807.879 1027.826, 805.125 1028.353 C 803.269 1028.709, 784.031 1029, 762.375 1029 C 740.719 1029, 723.001 1029.112, 723.003 1029.250 C 723.004 1029.388, 724.713 1034, 726.799 1039.500 L 730.592 1049.500 747.673 1049.773 L 764.754 1050.046 768.277 1046.523 C 771.230 1043.570, 772.504 1043.001, 776.150 1043.004 C 782.185 1043.009, 786.590 1045.900, 788.065 1050.824 C 790.442 1058.756, 785.162 1065.993, 777 1065.993 C 772.897 1065.993, 767.441 1062.965, 766.564 1060.201 C 766.118 1058.797, 764.681 1058.091, 761.335 1057.632 C 754.753 1056.730, 735.211 1056.849, 734.627 1057.795 C 734.357 1058.232, 735.457 1062.619, 737.072 1067.545 C 738.687 1072.470, 741.169 1081.675, 742.589 1088 C 744.008 1094.325, 745.363 1099.695, 745.601 1099.933 C 745.839 1100.171, 748.566 1100.308, 751.663 1100.238 C 756.429 1100.129, 757.768 1099.658, 760.396 1097.165 C 765.975 1091.873, 771.717 1091.870, 777.003 1097.157 C 779.449 1099.603, 780 1100.986, 780 1104.677 C 780 1108.487, 779.464 1109.736, 776.600 1112.600 C 771.440 1117.760, 764.345 1117.199, 759.442 1111.243 C 757.874 1109.339, 756.146 1108.624, 752.192 1108.244 C 749.336 1107.970, 747 1107.955, 747 1108.210 C 747 1108.465, 747.645 1112.970, 748.433 1118.219 C 749.221 1123.469, 750.185 1133.217, 750.575 1139.882 L 751.283 1152 757.892 1152.085 C 783.647 1152.418, 785.615 1152.589, 788.593 1154.747 C 790.192 1155.905, 794.794 1160.191, 798.820 1164.270 C 803.998 1169.517, 806.379 1172.746, 806.956 1175.303 C 807.404 1177.291, 807.841 1203.037, 807.928 1232.516 L 808.085 1286.115 812.542 1290.386 C 816.505 1294.183, 817 1295.148, 816.996 1299.079 C 816.992 1304.642, 814.314 1309.148, 809.717 1311.330 C 803.582 1314.241, 798.611 1312.891, 793.619 1306.959 C 788.943 1301.402, 790.833 1291.777, 797.452 1287.439 L 800 1285.770 800 1231.288 L 800 1176.806 793.250 1169.805 C 789.538 1165.954, 785.285 1162.173, 783.800 1161.402 C 781.848 1160.389, 777.095 1160, 766.658 1160 L 752.216 1160 751.491 1170.119 C 750.914 1178.184, 751.045 1180.414, 752.134 1181.104 C 752.885 1181.580, 758.755 1181.976, 765.177 1181.985 C 782.209 1182.007, 781 1179.111, 781 1219.885 L 781 1252.500 784.415 1255.225 C 790.310 1259.928, 790.055 1268.252, 783.857 1273.467 C 776.835 1279.375, 766.366 1274.431, 765.268 1264.688 C 764.757 1260.148, 764.913 1259.774, 768.881 1255.998 L 773.029 1252.053 772.764 1220.776 L 772.500 1189.500 761.881 1189.218 L 751.263 1188.935 750.631 1192.093 C 750.284 1193.829, 750 1197.487, 750 1200.221 C 750 1214.141, 742.224 1267.143, 736.829 1290 C 735.036 1297.594, 725.191 1332.149, 723.049 1338.367 C 721.937 1341.594, 721.244 1344.587, 721.510 1345.017 C 721.776 1345.447, 726.157 1345.659, 731.247 1345.488 C 736.336 1345.316, 742.010 1345.137, 743.857 1345.088 C 746.605 1345.016, 748.530 1343.723, 754.487 1337.947 L 761.761 1330.894 761.261 1324.665 C 760.811 1319.055, 761.015 1318.135, 763.321 1315.395 C 767.743 1310.140, 774.876 1309.187, 781.850 1312.920 C 784.937 1314.572, 787 1319.222, 787 1324.527 C 787 1328.272, 786.461 1329.693, 784.171 1331.983 C 780.663 1335.491, 775.064 1337.165, 770.868 1335.962 C 767.907 1335.113, 767.451 1335.417, 760.306 1343.013 C 754.999 1348.654, 751.777 1351.245, 749.169 1351.970 C 747.151 1352.530, 739.303 1352.991, 731.729 1352.994 C 718.389 1353, 717.928 1353.071, 717.037 1355.250 C 716.531 1356.487, 713.574 1363.575, 710.464 1371 C 707.355 1378.425, 704.741 1385.330, 704.656 1386.344 C 704.539 1387.721, 705.892 1388.696, 710 1390.196 C 713.025 1391.301, 721.799 1394.706, 729.499 1397.762 L 743.497 1403.319 785.249 1360.927 L 827 1318.534 827 1193.767 C 827 1107.787, 826.676 1069, 825.956 1069 C 825.383 1069, 820.207 1073.612, 814.454 1079.250 L 803.996 1089.500 803.998 1101.132 L 804 1112.765 808.129 1116.894 C 812.029 1120.794, 812.229 1121.277, 811.738 1125.633 C 810.959 1132.542, 806.649 1136.500, 799.904 1136.500 C 795.311 1136.500, 794.521 1136.145, 791.306 1132.637 C 788.060 1129.095, 787.809 1128.387, 788.288 1124.138 C 788.710 1120.395, 789.502 1118.905, 792.405 1116.396 C 795.982 1113.304, 796 1113.246, 796.084 1104.894 C 796.131 1100.277, 796.503 1093.813, 796.911 1090.529 L 797.654 1084.557 812.327 1070.450 C 823.948 1059.278, 827 1055.795, 827 1053.706 C 827 1052.206, 828.368 1049.439, 830.175 1047.285 C 836.466 1039.785, 880.562 995.834, 883.200 994.434 C 885.342 993.297, 891.188 993, 911.450 993 C 935.387 993, 937 992.886, 937 991.200 C 937 987.527, 938.971 987, 952.700 987 L 966 987 966 981.563 L 966 976.125 952.506 976.125 C 945.084 976.125, 938.559 975.845, 938.006 975.503 C 937.453 975.162, 937 974.009, 937 972.941 C 937 971.055, 935.965 971, 900.635 971 L 864.270 971 836.385 999.353 M 766.816 990.344 C 765.890 991.048, 764.839 992.794, 764.480 994.225 C 763.164 999.469, 770.670 1003.232, 774.345 999.171 C 776.570 996.712, 776.432 993.432, 774 991 C 771.716 988.716, 769.253 988.491, 766.816 990.344 M 1277.149 1000.779 C 1264.654 1001.040, 1263.763 1001.189, 1263.262 1003.106 C 1262.447 1006.222, 1258.975 1007, 1245.880 1007 L 1233.890 1007 1234.195 1011.750 L 1234.500 1016.500 1248.500 1017 L 1262.500 1017.500 1262.816 1020.250 L 1263.133 1023 1282.372 1023 C 1300.771 1023, 1301.742 1023.098, 1304.603 1025.250 C 1308.057 1027.848, 1342.043 1061.729, 1348.594 1069.106 L 1353 1074.067 1353 1123.761 L 1353 1173.456 1357 1177.113 C 1360.688 1180.484, 1361 1181.176, 1361 1185.984 C 1361 1190.583, 1360.597 1191.603, 1357.600 1194.600 C 1354.698 1197.502, 1353.512 1198, 1349.500 1198 C 1345.488 1198, 1344.302 1197.502, 1341.400 1194.600 C 1338.396 1191.596, 1338 1190.588, 1338 1185.945 C 1338 1181.123, 1338.326 1180.380, 1341.966 1176.917 L 1345.933 1173.144 1345.873 1126.322 C 1345.840 1100.570, 1345.518 1078.779, 1345.157 1077.898 C 1344.225 1075.625, 1308.405 1038.658, 1303.057 1034.451 L 1298.615 1030.955 1281.057 1031.228 C 1263.957 1031.493, 1263.492 1031.556, 1263.194 1033.648 C 1262.784 1036.527, 1260.598 1036.970, 1246.750 1036.986 L 1235 1037 1235 1042 L 1235 1047 1248.587 1047 L 1262.174 1047 1263.306 1050 L 1264.438 1053 1276.958 1053 L 1289.477 1053 1303.595 1067.250 L 1317.713 1081.500 1318.370 1105.683 C 1318.731 1118.984, 1318.736 1132.986, 1318.382 1136.799 C 1317.740 1143.711, 1317.747 1143.737, 1320.733 1145.502 C 1331.524 1151.876, 1327.393 1168, 1314.970 1168 C 1308.392 1168, 1303 1162.360, 1303 1155.478 C 1303 1152.479, 1303.770 1150.995, 1307 1147.765 L 1311 1143.765 1311 1115.532 L 1311 1087.300 1308.129 1083.400 C 1306.550 1081.255, 1300.985 1075.338, 1295.763 1070.250 L 1286.269 1061 1275.135 1061 C 1265.079 1061, 1264 1061.174, 1264 1062.800 C 1264 1066.489, 1262.043 1067, 1247.925 1067 L 1234.251 1067 1233.798 1075.250 C 1233.285 1084.605, 1231.154 1089.780, 1225.477 1095.456 C 1220.645 1100.288, 1217.190 1101.875, 1208.482 1103.260 L 1201 1104.451 1201 1118.156 C 1201 1131.607, 1200.958 1131.867, 1198.750 1132.180 C 1196.541 1132.494, 1196.495 1132.784, 1196.223 1147.976 L 1195.945 1163.451 1206.223 1173.204 L 1216.500 1182.957 1239.082 1182.978 L 1261.665 1183 1264.082 1179.329 C 1265.677 1176.907, 1267.861 1175.189, 1270.500 1174.279 C 1284.495 1169.454, 1294.858 1186.075, 1284.385 1196.548 C 1280.470 1200.463, 1275.618 1201.689, 1270.598 1200.032 C 1267.276 1198.936, 1262 1193.960, 1262 1191.923 C 1262 1191.384, 1251.772 1191, 1237.403 1191 L 1212.806 1191 1200.653 1179.066 L 1188.500 1167.132 1188.186 1149.626 L 1187.872 1132.121 1185.186 1131.810 L 1182.500 1131.500 1182.222 1117.750 L 1181.944 1104 1176.472 1104 L 1171 1104 1171 1117.300 C 1171 1131.029, 1170.473 1133, 1166.800 1133 C 1165.122 1133, 1165.002 1134.443, 1165.028 1154.250 L 1165.056 1175.500 1183.832 1194.596 C 1197.491 1208.487, 1203.412 1213.848, 1205.554 1214.262 C 1207.174 1214.576, 1243.723 1214.869, 1286.774 1214.914 L 1365.048 1214.994 1370.526 1209.689 L 1376.004 1204.383 1375.986 1136.120 C 1375.971 1080.229, 1375.717 1067.282, 1374.584 1064.679 C 1373.823 1062.930, 1359.654 1048, 1343.098 1031.500 L 1312.996 1001.500 1301.748 1001 C 1295.562 1000.725, 1284.492 1000.625, 1277.149 1000.779 M 884.385 1003.229 C 882.798 1004.454, 881.050 1005.946, 880.500 1006.543 C 879.950 1007.140, 869.487 1017.766, 857.250 1030.156 L 835 1052.685 834.930 1186.092 C 834.891 1259.467, 834.554 1320.253, 834.180 1321.174 C 833.330 1323.268, 824.840 1332.109, 784.272 1373.146 C 766.523 1391.101, 752 1406.188, 752 1406.673 C 752 1407.572, 768.249 1416, 769.984 1416 C 770.508 1416, 782.309 1404.412, 796.207 1390.250 C 810.106 1376.088, 828.568 1357.300, 837.234 1348.500 L 852.991 1332.500 852.995 1200.944 L 853 1069.389 855.250 1066.340 C 858.429 1062.033, 891.672 1027.964, 895.344 1025.250 C 898.254 1023.099, 899.242 1023, 917.694 1023 C 933.759 1023, 937 1022.760, 937 1021.571 C 937 1020.786, 937.707 1019.436, 938.571 1018.571 C 939.838 1017.305, 942.652 1017, 953.071 1017 L 966 1017 966 1012 L 966 1007 953.071 1007 C 942.652 1007, 939.838 1006.695, 938.571 1005.429 C 937.707 1004.564, 937 1003.214, 937 1002.429 C 937 1001.229, 933.018 1001, 912.135 1001 C 887.949 1001, 887.191 1001.061, 884.385 1003.229 M 880.750 1050.934 L 861 1070.896 860.965 1202.198 C 860.937 1303.277, 860.650 1334.002, 859.715 1335.681 C 859.047 1336.881, 840.500 1356.180, 818.500 1378.568 C 796.500 1400.956, 778.371 1419.600, 778.212 1420 C 778.054 1420.399, 779.306 1421.299, 780.995 1421.998 C 782.684 1422.698, 786.581 1424.784, 789.654 1426.635 C 792.728 1428.486, 795.766 1430, 796.406 1430 C 797.494 1430, 816.050 1411.542, 859.986 1366.757 C 870.099 1356.449, 878.732 1347.449, 879.171 1346.757 C 879.610 1346.066, 879.976 1316.168, 879.985 1280.317 C 880 1215.282, 879.995 1215.133, 877.931 1214.478 C 875.107 1213.582, 872.008 1208.209, 872.004 1204.200 C 871.988 1190.401, 890.714 1187.513, 895.049 1200.647 C 896.518 1205.101, 894.833 1210.203, 890.866 1213.307 L 887.877 1215.647 887.855 1279.573 C 887.843 1314.733, 887.533 1345.197, 887.167 1347.271 C 886.583 1350.573, 881.412 1356.204, 845.500 1392.646 C 822.950 1415.529, 804.368 1434.589, 804.208 1435.002 C 804.047 1435.415, 804.703 1436.056, 805.666 1436.425 C 806.628 1436.795, 813.257 1440.765, 820.396 1445.249 L 833.376 1453.400 861.590 1424.663 L 889.804 1395.926 889.339 1390.213 C 888.779 1383.332, 890.880 1379.234, 896.283 1376.670 C 900.580 1374.631, 904.229 1374.547, 907.800 1376.405 C 917.732 1381.573, 918.761 1394.394, 909.701 1400.107 C 907.166 1401.706, 905.334 1402.032, 900.898 1401.671 L 895.297 1401.217 867.898 1429.241 C 852.829 1444.654, 840.383 1457.556, 840.240 1457.911 C 840.098 1458.267, 841.312 1459.344, 842.940 1460.305 C 844.567 1461.266, 849.524 1464.741, 853.955 1468.026 C 858.386 1471.312, 862.348 1474, 862.759 1474 C 863.170 1474, 879.143 1458.025, 898.253 1438.501 L 933 1403.002 933.017 1370.751 C 933.027 1353.013, 933.019 1315.430, 933 1287.233 C 932.972 1244.778, 933.210 1235.497, 934.390 1233.233 C 935.173 1231.730, 944.630 1221.794, 955.407 1211.152 C 966.183 1200.511, 975 1191.624, 975 1191.402 C 975 1191.181, 962.260 1191, 946.689 1191 C 919.579 1191, 918.284 1191.087, 916.189 1193.039 C 914.010 1195.069, 914 1195.247, 914 1234.013 L 914 1272.949 916.970 1274.485 C 920.792 1276.461, 922.051 1278.911, 922.165 1284.592 C 922.437 1298.151, 905.183 1301.514, 899.966 1288.918 C 898.150 1284.535, 899.596 1279.117, 903.585 1275.355 L 907 1272.134 907 1232.517 C 907 1189.048, 907.061 1188.571, 912.967 1185.517 C 915.420 1184.249, 921.450 1184, 949.756 1184 L 983.611 1184 994.322 1173.750 L 1005.033 1163.500 1005.017 1147.750 L 1005 1132 1002.607 1132 C 1001.291 1132, 999.941 1131.288, 999.607 1130.418 C 999.273 1129.548, 999 1123.311, 999 1116.558 L 999 1104.280 993.455 1103.708 C 986.471 1102.987, 979.777 1099.777, 974.726 1094.726 C 969.404 1089.404, 966.917 1083.369, 966.461 1074.671 L 966.084 1067.500 952.858 1067.220 C 939.202 1066.930, 937 1066.307, 937 1062.731 C 937 1060.775, 936.600 1060.729, 925.250 1061.372 L 913.500 1062.038 901.750 1073.917 L 890 1085.796 890 1113.830 L 890 1141.864 893.015 1144.011 C 900.250 1149.163, 900.999 1158.863, 894.613 1164.716 C 891.657 1167.425, 890.230 1168, 886.465 1168 C 877.639 1168, 872.782 1163.295, 872.848 1154.809 C 872.890 1149.388, 876.190 1143.709, 879.999 1142.500 C 881.939 1141.884, 882 1140.990, 882 1113.009 L 882 1084.153 884.686 1080.827 C 889.013 1075.468, 907.274 1056.664, 910 1054.760 C 912.047 1053.330, 914.721 1053.012, 924.750 1053.007 C 936.258 1053, 937 1052.881, 937 1051.035 C 937 1047.796, 940.240 1047, 953.434 1047 L 966 1047 966 1042 L 966 1037 953.071 1037 C 942.652 1037, 939.838 1036.695, 938.571 1035.429 C 937.707 1034.564, 937 1033.214, 937 1032.429 C 937 1031.243, 933.893 1030.998, 918.750 1030.986 L 900.500 1030.972 880.750 1050.934 M 1402.455 1082.455 C 1399.594 1085.315, 1399.421 1086.728, 1401.557 1089.777 C 1403.233 1092.171, 1406.866 1092.677, 1410.066 1090.965 C 1412.880 1089.459, 1412.700 1083.604, 1409.777 1081.557 C 1406.728 1079.421, 1405.315 1079.594, 1402.455 1082.455 M 1018.940 1105.198 C 1018.907 1105.914, 1018.931 1111.051, 1018.993 1116.614 C 1019.133 1129.090, 1018.515 1131.833, 1015.389 1132.617 C 1013.023 1133.211, 1013 1133.341, 1012.989 1146.358 C 1012.983 1153.586, 1012.682 1161.295, 1012.320 1163.488 C 1011.587 1167.926, 1009.897 1169.695, 964.678 1213.370 L 941 1236.240 940.965 1320.370 C 940.938 1384.509, 940.640 1405.020, 939.713 1406.687 C 938.629 1408.636, 929.635 1417.929, 881.763 1466.560 L 868.907 1479.620 876.990 1485.810 C 881.436 1489.214, 885.438 1492, 885.884 1492 C 886.329 1492, 903.188 1475.156, 923.347 1454.568 L 960 1417.136 960 1335.133 C 960 1280.784, 960.351 1252.208, 961.040 1250.395 C 962.273 1247.151, 987.536 1221.419, 1015.190 1195.238 L 1034.982 1176.500 1034.991 1154.250 C 1035 1132.549, 1034.950 1132, 1032.969 1132 C 1030.258 1132, 1030.144 1131.460, 1029.799 1117 L 1029.500 1104.500 1024.250 1104.198 C 1020.472 1103.980, 1018.983 1104.261, 1018.940 1105.198 M 1048.778 1117.706 C 1048.500 1131.407, 1048.499 1131.413, 1046 1132.001 L 1043.500 1132.589 1043 1174.228 L 1042.500 1215.867 1026.985 1231.684 C 1003.547 1255.577, 998.575 1260.945, 997.694 1263.311 C 997.251 1264.501, 996.986 1338.544, 997.105 1427.851 L 997.322 1590.228 1006.273 1597.864 C 1011.196 1602.064, 1015.624 1605.650, 1016.112 1605.833 C 1016.627 1606.027, 1017 1535.913, 1017 1438.967 L 1017 1271.768 1028.245 1260.134 C 1034.430 1253.735, 1045.222 1242.650, 1052.228 1235.500 L 1064.965 1222.500 1065.066 1184.500 C 1065.121 1163.600, 1065.241 1143.468, 1065.333 1139.762 C 1065.494 1133.249, 1065.408 1132.992, 1062.750 1132.064 L 1060 1131.104 1060 1117.552 L 1060 1104 1054.528 1104 L 1049.056 1104 1048.778 1117.706 M 1078.778 1117.706 C 1078.500 1131.407, 1078.499 1131.413, 1076 1132.001 L 1073.500 1132.589 1073 1179.264 L 1072.500 1225.938 1066.500 1232.210 C 1063.200 1235.659, 1052.876 1246.233, 1043.558 1255.707 C 1034.241 1265.181, 1026.234 1273.617, 1025.767 1274.452 C 1025.299 1275.288, 1024.932 1351.651, 1024.952 1444.150 C 1024.984 1601.667, 1025.096 1612.448, 1026.704 1614.225 C 1028.690 1616.420, 1041.438 1626, 1042.372 1626 C 1042.718 1626, 1043 1589.545, 1043 1544.989 L 1043 1463.978 1050.420 1456.211 L 1057.841 1448.444 1056.774 1444.448 C 1053.526 1432.281, 1068.916 1422.719, 1078.376 1431.026 C 1082.311 1434.481, 1083.771 1438, 1083.314 1442.929 C 1082.605 1450.562, 1076.414 1455.395, 1068.312 1454.641 C 1062.644 1454.113, 1062.950 1453.938, 1055.184 1462.147 L 1050.869 1466.709 1050.798 1484.605 C 1050.759 1494.447, 1050.788 1531.591, 1050.863 1567.147 L 1051 1631.795 1059.649 1637.397 C 1064.406 1640.479, 1068.681 1643, 1069.149 1643 C 1069.617 1643, 1070 1616.479, 1070 1584.065 C 1070 1548.612, 1070.385 1524.119, 1070.965 1522.592 C 1071.496 1521.195, 1080.471 1511.378, 1090.910 1500.776 L 1109.889 1481.500 1105.136 1476.500 C 1097.048 1467.989, 1097.550 1469.851, 1097 1446.357 L 1096.500 1425.014 1078.500 1407.013 L 1060.500 1389.013 1055.235 1389.006 C 1050.640 1389.001, 1049.496 1388.565, 1046.235 1385.577 C 1042.762 1382.394, 1042.500 1381.755, 1042.500 1376.475 C 1042.500 1371.140, 1042.727 1370.607, 1046.250 1367.648 L 1050 1364.500 1050 1327.651 C 1050 1294.880, 1050.190 1290.401, 1051.719 1287.179 C 1052.665 1285.187, 1063.015 1273.977, 1074.719 1262.269 L 1096 1240.982 1096 1186.491 C 1096 1132.386, 1095.986 1132, 1093.969 1132 C 1092.851 1132, 1091.749 1131.438, 1091.518 1130.750 C 1091.020 1129.262, 1090.091 1115.464, 1090.038 1108.750 L 1090 1104 1084.528 1104 L 1079.056 1104 1078.778 1117.706 M 1470.917 1146.782 C 1468.541 1148.906, 1467.681 1150.654, 1467.285 1154.163 C 1467 1156.692, 1467.233 1159.594, 1467.803 1160.612 C 1468.662 1162.148, 1467.907 1163.523, 1463.356 1168.706 C 1460.342 1172.140, 1457.438 1176.424, 1456.904 1178.225 C 1456.298 1180.268, 1456.168 1197.681, 1456.558 1224.500 L 1457.183 1267.500 1444.532 1280.725 L 1431.882 1293.950 1340.146 1294.225 C 1251.697 1294.490, 1248.305 1294.569, 1245.455 1296.416 C 1240.079 1299.902, 1193.220 1347.951, 1189.921 1353.361 C 1188.105 1356.339, 1188.007 1358.993, 1188.004 1405.224 L 1188 1453.949 1185.148 1455.423 C 1175.910 1460.200, 1176.841 1475.529, 1186.617 1479.613 C 1190.939 1481.419, 1193.397 1481.363, 1197.251 1479.370 C 1203.100 1476.346, 1205 1473.157, 1205 1466.367 C 1205 1461.988, 1204.615 1461.233, 1200.250 1457.051 C 1196.505 1453.463, 1195.529 1451.865, 1195.639 1449.500 C 1195.715 1447.850, 1195.827 1426.439, 1195.889 1401.920 L 1196 1357.340 1201.204 1351.920 C 1212.709 1339.939, 1232.380 1319.982, 1241.291 1311.250 L 1250.731 1302 1342.563 1302 L 1434.395 1302 1447.448 1288.976 C 1454.626 1281.812, 1461.579 1274.375, 1462.898 1272.448 L 1465.295 1268.945 1464.449 1234.723 C 1463.505 1196.512, 1463.710 1181.413, 1465.212 1178.606 C 1465.769 1177.564, 1468.032 1174.751, 1470.240 1172.356 C 1473.667 1168.638, 1474.829 1168, 1478.177 1168 C 1488.013 1168, 1493.809 1159.333, 1489.520 1151.039 C 1485.678 1143.610, 1476.754 1141.568, 1470.917 1146.782 M 883.280 1150.020 C 878.933 1151.769, 879.466 1159.061, 884.048 1160.515 C 889.606 1162.279, 893.577 1153.918, 888.777 1150.557 C 886.267 1148.798, 886.307 1148.802, 883.280 1150.020 M 1271 1183 C 1267.056 1186.944, 1269.644 1193, 1275.272 1193 C 1278.073 1193, 1281 1189.820, 1281 1186.777 C 1281 1184.391, 1277.479 1181, 1275 1181 C 1273.900 1181, 1272.100 1181.900, 1271 1183 M 1003.439 1217.786 C 986.355 1234.679, 971.166 1250.119, 969.685 1252.099 L 966.994 1255.697 967.247 1410.030 L 967.500 1564.364 977.500 1573.134 C 983 1577.957, 988.064 1581.925, 988.753 1581.952 C 989.753 1581.990, 990.004 1549.462, 989.994 1421.314 L 989.981 1260.627 992.399 1257.064 C 993.729 1255.104, 1003.841 1244.275, 1014.871 1233 L 1034.924 1212.500 1034.962 1199.750 C 1034.983 1192.737, 1034.888 1187.016, 1034.750 1187.036 C 1034.612 1187.056, 1020.522 1200.894, 1003.439 1217.786 M 1184 1259.704 C 1181.211 1260.719, 1177.101 1265.265, 1176.500 1267.999 C 1175.739 1271.466, 1178.482 1278.431, 1181.349 1280.309 C 1189.889 1285.905, 1200 1280.489, 1200 1270.318 C 1200 1268.188, 1199.298 1265.442, 1198.439 1264.217 C 1195.513 1260.039, 1188.824 1257.948, 1184 1259.704 M 799.655 1295.829 C 797.456 1298.259, 797.567 1300.567, 800 1303 C 802.654 1305.654, 806.500 1305.552, 808.443 1302.777 C 810.501 1299.840, 810.407 1298.407, 808 1296 C 805.504 1293.504, 801.827 1293.429, 799.655 1295.829 M 769.655 1318.829 C 766.067 1322.793, 768.825 1329, 774.174 1329 C 779.541 1329, 782.100 1321.584, 777.777 1318.557 C 774.819 1316.484, 771.681 1316.590, 769.655 1318.829 M 898.278 1384.250 C 895.466 1387.884, 896.498 1392.478, 900.464 1393.986 C 903.784 1395.249, 905.749 1394.387, 907.567 1390.870 C 909.903 1386.353, 907.335 1383, 901.541 1383 C 900.278 1383, 898.810 1383.563, 898.278 1384.250 M 925.642 1463.529 C 907.689 1481.970, 893 1497.442, 893 1497.911 C 893 1498.379, 894.462 1499.885, 896.250 1501.256 C 902.790 1506.274, 932.100 1531.831, 944.985 1543.750 C 952.268 1550.487, 958.646 1556, 959.159 1556 C 959.727 1556, 960.033 1531.382, 959.943 1493 C 959.861 1458.350, 959.455 1430, 959.039 1430 C 958.624 1430, 943.595 1445.088, 925.642 1463.529 M 1066.223 1436.557 C 1061.684 1439.736, 1064.501 1447, 1070.272 1447 C 1073.045 1447, 1076 1443.828, 1076 1440.850 C 1076 1439.061, 1071.549 1435, 1069.588 1435 C 1068.959 1435, 1067.445 1435.701, 1066.223 1436.557 M 1188.174 1463.314 C 1185.596 1466.059, 1185.454 1467.776, 1187.557 1470.777 C 1190.646 1475.187, 1198 1472.398, 1198 1466.816 C 1198 1464.671, 1194.204 1461, 1191.986 1461 C 1191.085 1461, 1189.370 1462.042, 1188.174 1463.314 M 1097.483 1504.990 C 1087.650 1514.869, 1079.181 1523.712, 1078.662 1524.640 C 1077.708 1526.344, 1076.924 1622.131, 1077.721 1639.644 L 1078.136 1648.789 1089.377 1654.891 C 1103.201 1662.395, 1122.996 1671.338, 1123.861 1670.470 C 1124.212 1670.117, 1124.413 1650.301, 1124.306 1626.433 L 1124.113 1583.038 1120.587 1579.943 C 1112.308 1572.673, 1116.728 1559, 1127.357 1559 C 1135.505 1559, 1140.629 1564.727, 1139.717 1572.815 C 1139.289 1576.613, 1138.509 1578.085, 1135.585 1580.613 L 1131.979 1583.730 1132.240 1629.115 L 1132.500 1674.500 1145 1678.713 C 1151.875 1681.030, 1157.838 1682.943, 1158.250 1682.963 C 1158.662 1682.983, 1159 1648.665, 1159 1606.699 L 1159 1530.399 1137.444 1508.949 C 1125.589 1497.152, 1115.770 1487.393, 1115.624 1487.263 C 1115.479 1487.133, 1107.315 1495.110, 1097.483 1504.990 M 1097.270 1537.435 C 1091.010 1540.249, 1088.275 1548.271, 1091.636 1553.960 C 1096.759 1562.634, 1109.083 1561.458, 1113.034 1551.918 C 1116.853 1542.697, 1106.573 1533.253, 1097.270 1537.435 M 1197 1643.694 C 1194.743 1644.500, 1193 1647.104, 1193 1649.668 C 1193 1652.589, 1197.178 1655.423, 1200.321 1654.634 C 1203.345 1653.875, 1205.388 1649.594, 1203.982 1646.966 C 1203.102 1645.322, 1199.795 1642.834, 1198.816 1643.079 C 1198.642 1643.122, 1197.825 1643.399, 1197 1643.694" stroke="none" fill="#12110e" fill-rule="evenodd"/></svg>